<svg width="244" height="246" viewBox="0 0 244 246" fill="none" xmlns="http://www.w3.org/2000/svg">
<path d="M119.932 238.065V216.247H122.575V238.065H119.932Z" fill="black"/>
<path d="M113.778 225.894L114.88 216.112L117.379 216.393L115.547 232.654L113.133 232.382L113.419 229.841L113.207 229.817C112.733 230.6 112.08 231.198 111.247 231.612C110.413 232.033 109.383 232.174 108.155 232.035C107.054 231.911 106.116 231.577 105.341 231.032C104.565 230.495 103.999 229.745 103.643 228.783C103.286 227.828 103.186 226.658 103.341 225.275L104.506 214.943L107.004 215.224L105.859 225.387C105.715 226.665 105.935 227.697 106.518 228.485C107.1 229.279 107.97 229.742 109.127 229.872C109.925 229.962 110.657 229.87 111.324 229.594C111.984 229.319 112.532 228.869 112.966 228.246C113.401 227.624 113.672 226.839 113.778 225.894Z" fill="black"/>
<path d="M92.7773 228.899L93.2514 226.822L101.519 228.709L101.045 230.786L92.7773 228.899ZM97.7628 234.058L95.3116 233.499L98.7822 218.293C98.9403 217.601 98.9584 217.059 98.8366 216.667C98.7063 216.28 98.4954 215.992 98.2037 215.801C97.9036 215.616 97.5735 215.482 97.2134 215.4C96.9433 215.339 96.7186 215.302 96.5392 215.29C96.3582 215.285 96.2134 215.281 96.1048 215.278L96.1088 212.963C96.2892 212.938 96.5354 212.929 96.8473 212.935C97.1609 212.933 97.5462 212.985 98.0032 213.089C98.6956 213.247 99.3402 213.551 99.9369 214C100.527 214.448 100.97 215.027 101.267 215.735C101.558 216.443 101.597 217.26 101.385 218.188L97.7628 234.058Z" fill="black"/>
<path d="M90.5665 210.62C92.0548 211.141 93.2236 211.918 94.073 212.953C94.9134 213.992 95.4176 215.207 95.5856 216.597C95.7446 217.992 95.5473 219.481 94.9937 221.063C94.4401 222.645 93.6639 223.939 92.6652 224.943C91.6574 225.953 90.5155 226.614 89.2395 226.928C87.9544 227.245 86.6147 227.16 85.2203 226.673C84.4159 226.391 83.6684 225.979 82.9779 225.436C82.2874 224.894 81.7259 224.208 81.2935 223.38C80.8587 222.558 80.6227 221.587 80.5854 220.468C80.5481 219.349 80.7816 218.069 81.2859 216.628L81.6378 215.622L93.5436 219.788L92.8258 221.839L83.3333 218.518C83.0284 219.389 82.9306 220.228 83.0399 221.034C83.1425 221.837 83.4431 222.548 83.9415 223.166C84.4333 223.782 85.1082 224.241 85.9663 224.541C86.9115 224.872 87.8115 224.923 88.6661 224.695C89.5118 224.472 90.2491 224.053 90.8782 223.438C91.5073 222.823 91.9708 222.09 92.2687 221.238L92.7472 219.871C93.1554 218.704 93.3003 217.645 93.1819 216.693C93.0544 215.746 92.7026 214.934 92.1264 214.258C91.5478 213.589 90.7792 213.087 89.8206 212.752C89.1971 212.533 88.6035 212.424 88.0398 212.422C87.467 212.425 86.934 212.539 86.441 212.765C85.9456 212.998 85.5036 213.348 85.1148 213.814L83.0473 212.368C83.5607 211.675 84.2056 211.133 84.9818 210.742C85.7557 210.359 86.6191 210.149 87.572 210.114C88.5226 210.085 89.5208 210.254 90.5665 210.62Z" fill="black"/>
<path d="M84.2847 208.559L77.1847 223.302L74.9963 222.248L76.0687 220.022L75.9151 219.948C75.2951 220.548 74.5237 220.905 73.601 221.021C72.6784 221.136 71.7755 220.981 70.8924 220.556C70.7261 220.476 70.5196 220.372 70.2732 220.246C70.0267 220.119 69.8425 220.019 69.7207 219.944L70.8301 217.641C70.8976 217.697 71.0597 217.81 71.3164 217.981C71.5636 218.155 71.8376 218.315 72.1383 218.46C72.855 218.805 73.5673 218.963 74.2752 218.933C74.9737 218.907 75.6124 218.71 76.1915 218.342C76.761 217.978 77.206 217.463 77.5265 216.798L82.0194 207.468L84.2847 208.559Z" fill="black"/>
<path d="M72.116 201.627C73.451 202.466 74.4175 203.484 75.0154 204.682C75.6035 205.882 75.8247 207.179 75.6791 208.572C75.5236 209.967 75.0001 211.374 74.1083 212.794C73.2165 214.213 72.172 215.301 70.9747 216.059C69.7675 216.818 68.5071 217.209 67.1933 217.231C65.8698 217.255 64.5826 216.874 63.3318 216.088C62.6101 215.634 61.9731 215.066 61.4206 214.384C60.8682 213.701 60.4733 212.908 60.2361 212.004C59.9951 211.106 59.9809 210.107 60.1936 209.008C60.4063 207.908 60.9188 206.712 61.7312 205.419L62.298 204.517L72.9783 211.228L71.822 213.068L63.3067 207.718C62.8154 208.499 62.5335 209.295 62.4608 210.105C62.382 210.911 62.5169 211.671 62.8652 212.385C63.2076 213.095 63.7636 213.692 64.5334 214.176C65.3813 214.708 66.2472 214.959 67.1311 214.927C68.0052 214.898 68.8174 214.653 69.5676 214.193C70.3177 213.734 70.9328 213.122 71.4127 212.358L72.1835 211.131C72.841 210.085 73.2179 209.085 73.3143 208.13C73.4009 207.178 73.2385 206.308 72.8271 205.522C72.4119 204.741 71.7743 204.08 70.9144 203.54C70.3551 203.188 69.8008 202.949 69.2516 202.822C68.6925 202.697 68.1475 202.69 67.6164 202.801C67.0816 202.918 66.5729 203.16 66.0902 203.528L64.3963 201.658C65.0511 201.097 65.8003 200.712 66.644 200.504C67.4839 200.302 68.3723 200.29 69.3092 200.468C70.2422 200.651 71.1778 201.038 72.116 201.627Z" fill="black"/>
<path d="M49.2341 201.328L51.3984 202.237C51.2748 202.62 51.2105 203.036 51.2057 203.487C51.1909 203.938 51.2936 204.402 51.514 204.877C51.7343 205.353 52.1305 205.818 52.7024 206.274C53.4854 206.899 54.2817 207.239 55.0915 207.294C55.8913 207.35 56.5104 207.104 56.9488 206.554C57.3385 206.065 57.4686 205.538 57.339 204.971C57.2095 204.405 56.8424 203.726 56.2378 202.935L54.7107 200.954C53.7883 199.764 53.2747 198.66 53.1699 197.64C53.0608 196.627 53.3627 195.673 54.0756 194.779C54.6601 194.046 55.3937 193.559 56.2762 193.318C57.1532 193.073 58.0993 193.082 59.1147 193.347C60.13 193.612 61.1346 194.14 62.1286 194.933C63.4335 195.974 64.2876 197.118 64.6911 198.366C65.0945 199.615 64.9761 200.874 64.3359 202.144L62.0982 201.122C62.4696 200.292 62.5455 199.508 62.3258 198.769C62.1006 198.026 61.5854 197.334 60.7803 196.692C59.8641 195.961 58.9817 195.576 58.1331 195.535C57.2745 195.495 56.626 195.75 56.1876 196.3C55.8334 196.744 55.6922 197.24 55.764 197.788C55.8314 198.341 56.1274 198.95 56.6519 199.613L58.3857 201.813C59.3359 203.025 59.8534 204.142 59.9382 205.164C60.0129 206.186 59.6983 207.139 58.9942 208.022C58.4186 208.744 57.7066 209.221 56.8585 209.453C56.0047 209.68 55.0991 209.671 54.1415 209.425C53.1783 209.175 52.2469 208.691 51.3474 207.974C50.0814 206.964 49.3088 205.894 49.0298 204.763C48.7452 203.627 48.8133 202.483 49.2341 201.328Z" fill="black"/>
<path d="M41.4626 197.712L42.9692 196.205L48.9655 202.202L47.4589 203.708L41.4626 197.712ZM42.9391 204.733L41.1612 202.955L52.1897 191.926C52.6919 191.424 52.9957 190.975 53.1012 190.578C53.1966 190.181 53.1715 189.825 53.0259 189.508C52.8702 189.192 52.6618 188.903 52.4006 188.642C52.2048 188.446 52.034 188.296 51.8884 188.19C51.7377 188.09 51.6172 188.009 51.5268 187.949L52.7622 185.99C52.9279 186.066 53.1414 186.189 53.4025 186.36C53.6687 186.525 53.9675 186.774 54.299 187.105C54.8012 187.607 55.1854 188.208 55.4515 188.906C55.7127 189.599 55.7805 190.324 55.6549 191.083C55.5243 191.836 55.1226 192.549 54.4496 193.222L42.9391 204.733Z" fill="black"/>
<path d="M49.3159 181.058C50.2989 182.291 50.8749 183.571 51.0436 184.899C51.2024 186.226 50.983 187.523 50.3854 188.79C49.7778 190.055 48.8188 191.211 47.5084 192.256C46.1979 193.301 44.8525 193.983 43.4722 194.303C42.0819 194.621 40.7631 194.574 39.5159 194.16C38.2588 193.746 37.1696 192.961 36.2486 191.806C35.7172 191.14 35.3035 190.393 35.0075 189.566C34.7115 188.739 34.6009 187.86 34.6755 186.929C34.7446 186.001 35.0611 185.054 35.6249 184.087C36.1888 183.119 37.0676 182.159 38.2615 181.207L39.0944 180.543L46.9589 190.405L45.2597 191.76L38.9894 183.897C38.2675 184.473 37.7385 185.131 37.4024 185.871C37.0619 186.606 36.9381 187.368 37.0312 188.157C37.1198 188.94 37.4475 189.687 38.0144 190.398C38.6387 191.181 39.3733 191.703 40.2181 191.965C41.0529 192.226 41.9003 192.263 42.7602 192.077C43.6201 191.891 44.4027 191.517 45.1079 190.954L46.2406 190.051C47.2068 189.281 47.893 188.461 48.2992 187.592C48.6954 186.722 48.8293 185.847 48.7009 184.969C48.5669 184.094 48.1833 183.26 47.5501 182.466C47.1383 181.95 46.6941 181.541 46.2176 181.24C45.7312 180.937 45.219 180.751 44.6812 180.68C44.1378 180.614 43.5775 180.674 43.0005 180.862L42.0191 178.538C42.8226 178.224 43.6569 178.108 44.5219 178.191C45.3814 178.277 46.224 178.559 47.0496 179.036C47.8697 179.518 48.6251 180.192 49.3159 181.058Z" fill="black"/>
<path d="M41.8158 170.297C42.5413 171.452 42.8901 172.654 42.8623 173.905C42.8284 175.159 42.4331 176.372 41.6763 177.544C40.9134 178.72 39.7984 179.768 38.331 180.69C36.8757 181.605 35.456 182.149 34.072 182.322C32.6879 182.496 31.4246 182.321 30.282 181.797C29.1395 181.274 28.2017 180.428 27.4686 179.262C26.9018 178.36 26.6044 177.553 26.5763 176.841C26.5385 176.126 26.6221 175.512 26.8271 174.997C27.0224 174.48 27.1911 174.068 27.3334 173.76L27.2201 173.58L20.4006 177.865L19.063 175.736L37.5369 164.128L38.8292 166.185L36.7004 167.522L36.8591 167.775C37.2099 167.773 37.6684 167.795 38.2347 167.842C38.7949 167.892 39.3935 168.091 40.0305 168.437C40.6615 168.787 41.2566 169.407 41.8158 170.297ZM39.7221 171.21C39.1855 170.356 38.5096 169.774 37.6943 169.465C36.873 169.159 35.969 169.102 34.9825 169.294C33.99 169.49 32.9705 169.916 31.9242 170.574C30.8898 171.224 30.0792 171.943 29.4924 172.731C28.8995 173.523 28.5718 174.35 28.5091 175.211C28.4404 176.076 28.6781 176.942 29.2222 177.808C29.789 178.71 30.4929 179.316 31.3338 179.626C32.1649 179.934 33.0689 179.991 34.0456 179.797C35.0125 179.601 35.9831 179.196 36.9573 178.584C37.9435 177.964 38.7451 177.251 39.362 176.444C39.9691 175.635 40.3232 174.783 40.4242 173.889C40.5154 172.993 40.2813 172.1 39.7221 171.21Z" fill="black"/>
<path d="M34.8252 155.82L19.3799 161.225L18.5495 158.852L33.9948 153.447L34.8252 155.82ZM16.3834 160.919C16.5453 161.382 16.5273 161.836 16.3295 162.281C16.1294 162.72 15.8081 163.017 15.3656 163.171C14.9232 163.326 14.487 163.294 14.0569 163.076C13.6246 162.851 13.3275 162.508 13.1656 162.045C13.0038 161.582 13.0229 161.132 13.223 160.693C13.4208 160.248 13.7409 159.947 14.1834 159.793C14.6258 159.638 15.0632 159.673 15.4956 159.898C15.9256 160.116 16.2216 160.456 16.3834 160.919Z" fill="black"/>
<path d="M22.8375 150.769L32.4345 148.579L32.9939 151.03L17.0406 154.671L16.5001 152.303L18.9928 151.734L18.9454 151.526C18.0499 151.337 17.2694 150.918 16.604 150.269C15.9316 149.621 15.4579 148.694 15.1829 147.49C14.9363 146.409 14.9422 145.414 15.2004 144.502C15.4518 143.593 15.9727 142.811 16.7632 142.157C17.5467 141.505 18.6171 141.023 19.9742 140.714L30.1113 138.4L30.6707 140.851L20.6999 143.127C19.4466 143.413 18.5446 143.961 17.9938 144.772C17.4361 145.584 17.2868 146.558 17.546 147.693C17.7246 148.476 18.0538 149.136 18.5338 149.675C19.0121 150.207 19.6171 150.575 20.3485 150.78C21.08 150.984 21.9097 150.981 22.8375 150.769Z" fill="black"/>
<path d="M35.3832 123.422H26.7327V123.635C27.0309 123.819 27.4074 124.082 27.8619 124.423C28.3094 124.764 28.7106 125.25 29.0657 125.883C29.4138 126.515 29.5878 127.356 29.5878 128.407C29.5878 129.771 29.2433 130.975 28.5544 132.019C27.8584 133.063 26.8782 133.88 25.614 134.469C24.3427 135.059 22.8406 135.353 21.1077 135.353C19.3889 135.353 17.8974 135.059 16.6332 134.469C15.369 133.88 14.3925 133.059 13.7035 132.008C13.0146 130.957 12.6702 129.743 12.6702 128.365C12.6702 127.299 12.8477 126.458 13.2028 125.84C13.5508 125.215 13.9486 124.739 14.396 124.412C14.8363 124.079 15.1986 123.819 15.4827 123.635V123.336H12.8832L12.8832 120.907L35.3832 120.907V123.422ZM27.3292 128.066C27.3292 127.058 27.0665 126.206 26.5409 125.51C26.0082 124.814 25.2731 124.284 24.3356 123.922C23.391 123.56 22.3008 123.379 21.065 123.379C19.8434 123.379 18.7746 123.557 17.8584 123.912C16.9351 124.267 16.2177 124.792 15.7064 125.488C15.1879 126.184 14.9287 127.044 14.9287 128.066C14.9287 129.132 15.2021 130.02 15.749 130.73C16.2888 131.433 17.0238 131.962 17.9542 132.317C18.8775 132.665 19.9145 132.839 21.065 132.839C22.2298 132.839 23.288 132.662 24.2398 132.307C25.1844 131.944 25.9372 131.412 26.4983 130.709C27.0523 129.998 27.3292 129.118 27.3292 128.066Z" fill="black"/>
<path d="M23.6135 109.324L14.001 108.241L14.2825 105.742L30.5433 107.574L30.2618 110.073L27.5093 109.763L27.4902 109.932C28.273 110.406 28.9084 111.078 29.3965 111.948C29.8775 112.817 30.0488 113.865 29.9105 115.093C29.796 116.11 29.4719 116.988 28.9382 117.728C28.3974 118.468 27.6499 119.013 26.6956 119.363C25.7343 119.712 24.562 119.808 23.1787 119.653L12.8464 118.488L13.1279 115.99L23.2908 117.135C24.4765 117.269 25.4596 117.043 26.2401 116.46C27.0214 115.869 27.4705 115.054 27.5874 114.017C27.6574 113.396 27.5698 112.746 27.3245 112.068C27.0801 111.383 26.6544 110.785 26.0473 110.273C25.4411 109.755 24.6298 109.438 23.6135 109.324Z" fill="black"/>
<path d="M31.7415 102.675C31.5107 103.686 31.1109 104.56 30.542 105.297C29.9662 106.032 29.2594 106.56 28.4218 106.878C27.5772 107.195 26.6356 107.236 25.5969 106.998C24.6829 106.79 23.9831 106.441 23.4975 105.951C23.005 105.46 22.6648 104.876 22.4768 104.199C22.2889 103.523 22.1982 102.802 22.2049 102.039C22.2063 101.267 22.243 100.5 22.3152 99.7367C22.4118 98.7389 22.4977 97.9317 22.5729 97.315C22.6427 96.6899 22.6296 96.2207 22.5336 95.9074C22.4391 95.5871 22.1946 95.382 21.7999 95.2919L21.7168 95.2729C20.692 95.039 19.8317 95.1377 19.1359 95.569C18.4417 95.9933 17.9658 96.7698 17.7082 97.8984C17.4411 99.0686 17.4879 100.045 17.8486 100.826C18.2092 101.608 18.6496 102.2 19.1696 102.603L17.8076 104.74C16.9331 104.103 16.3048 103.377 15.9227 102.561C15.5353 101.737 15.3283 100.888 15.3018 100.015C15.2698 99.134 15.3455 98.2917 15.5289 97.4884C15.6458 96.9761 15.8425 96.4017 16.1188 95.7654C16.3898 95.1207 16.7834 94.5294 17.2995 93.9915C17.8173 93.4468 18.5009 93.0528 19.3505 92.8096C20.2 92.5664 21.2584 92.5894 22.5255 92.8786L33.0365 95.2777L32.477 97.7289L30.3166 97.2358L30.2882 97.3604C30.5965 97.6056 30.9037 97.9671 31.2099 98.445C31.5161 98.9228 31.7341 99.5153 31.8641 100.222C31.9941 100.93 31.9532 101.747 31.7415 102.675ZM29.6249 101.799C29.8462 100.829 29.8422 99.9686 29.6131 99.217C29.3856 98.4584 29.0093 97.8407 28.4844 97.3639C27.961 96.8802 27.3669 96.5625 26.7022 96.4108L24.4588 95.8987C24.5597 96.0311 24.6218 96.2856 24.6451 96.6625C24.663 97.0308 24.6579 97.4522 24.6297 97.9266C24.5962 98.3924 24.5582 98.8463 24.5156 99.2883C24.4677 99.7217 24.431 100.074 24.4056 100.345C24.3432 101.001 24.3424 101.627 24.4029 102.224C24.4581 102.812 24.6304 103.318 24.92 103.741C25.2042 104.155 25.6578 104.434 26.281 104.576C27.1327 104.77 27.8486 104.602 28.4286 104.072C29.0033 103.533 29.4021 102.775 29.6249 101.799Z" fill="black"/>
<path d="M14.2305 83.4698L34.8243 90.6759L33.994 93.049L13.4001 85.8429L14.2305 83.4698Z" fill="black"/>
<path d="M37.8117 85.4634L23.0686 78.3634L24.1594 76.0982L38.9026 83.1981L37.8117 85.4634ZM21.1661 76.0283C20.9534 76.4698 20.6197 76.7782 20.1649 76.9533C19.7131 77.122 19.2761 77.1047 18.8538 76.9013C18.4314 76.6979 18.1454 76.367 17.9956 75.9086C17.849 75.4438 17.882 74.9907 18.0946 74.5492C18.3072 74.1076 18.6394 73.8025 19.0911 73.6338C19.546 73.4587 19.9845 73.4728 20.4069 73.6762C20.8292 73.8796 21.1137 74.2137 21.2604 74.6785C21.4101 75.1368 21.3787 75.5868 21.1661 76.0283Z" fill="black"/>
<path d="M31.8701 62.8104L33.6742 63.944L29.1625 71.1244L27.3584 69.9908L31.8701 62.8104ZM25.3538 65.8122L26.6915 63.6834L39.8975 71.9812C40.4988 72.3591 41.0047 72.5553 41.4149 72.5698C41.8229 72.5746 42.165 72.4708 42.441 72.2584C42.7148 72.0362 42.95 71.7687 43.1465 71.456C43.2939 71.2215 43.4027 71.0215 43.4732 70.856C43.5376 70.6868 43.5891 70.5514 43.6277 70.4499L45.8121 71.2185C45.7756 71.3968 45.7031 71.6323 45.5947 71.9249C45.4924 72.2213 45.3165 72.5679 45.0671 72.9648C44.6893 73.5662 44.1897 74.0743 43.5683 74.4891C42.9508 74.8979 42.2584 75.1255 41.4911 75.1719C40.7276 75.2122 39.943 74.9792 39.1371 74.4728L25.3538 65.8122Z" fill="black"/>
<path d="M51.6662 73.7837C51.4005 74.1169 51.1358 74.3918 50.8722 74.6085C50.6141 74.8296 50.4202 74.9703 50.2905 75.0303L48.9566 73.149C49.4596 72.7689 49.8405 72.3823 50.0995 71.9892C50.3584 71.5962 50.4537 71.1407 50.3852 70.6228C50.3267 70.1038 50.0678 69.4659 49.6086 68.709L48.9013 67.5455L32.2683 62.0207L33.9687 59.8885L46.9799 64.4871L47.0862 64.3538L39.7076 52.6921L41.4081 50.5598L51.7366 67.6808C52.2026 68.4521 52.5082 69.1909 52.6535 69.8973C52.8043 70.608 52.7948 71.2863 52.625 71.9321C52.4596 72.5724 52.14 73.1896 51.6662 73.7837Z" fill="black"/>
<path d="M62.8354 53.7946C61.7693 54.6448 60.6133 55.126 59.3676 55.2384C58.1173 55.3451 56.8677 55.0881 55.6186 54.4673C54.365 53.8408 53.198 52.8502 52.1176 51.4953C51.0459 50.1515 50.3465 48.8017 50.0191 47.4458C49.6918 46.0898 49.7243 44.8149 50.1165 43.6209C50.5088 42.4269 51.2436 41.4003 52.3208 40.5413C53.1537 39.877 53.9224 39.4911 54.6269 39.3835C55.3326 39.2659 55.9526 39.2802 56.487 39.4263C57.0225 39.5625 57.451 39.684 57.7725 39.791L57.9391 39.6582L52.9175 33.3613L54.8832 31.7937L68.4866 48.8519L66.5876 50.3663L65.02 48.4006L64.7868 48.5866C64.8284 48.935 64.8576 49.3931 64.8745 49.961C64.8869 50.5234 64.7568 51.1405 64.484 51.8122C64.2068 52.4784 63.6573 53.1392 62.8354 53.7946ZM61.6938 51.8162C62.4823 51.1874 62.9848 50.4506 63.2013 49.6057C63.4133 48.7553 63.3687 47.8507 63.0674 46.8919C62.7616 45.9275 62.2235 44.9623 61.453 43.9961C60.6913 43.041 59.8861 42.316 59.0372 41.8211C58.1839 41.3207 57.3257 41.0875 56.4627 41.1217C55.5953 41.1503 54.7618 41.4834 53.9622 42.1211C53.1293 42.7853 52.6057 43.5526 52.3913 44.423C52.1782 45.2834 52.2228 46.188 52.5253 47.1368C52.8288 48.0757 53.3393 48.9949 54.0567 49.8944C54.7829 50.8051 55.5815 51.5217 56.4525 52.0444C57.3247 52.5571 58.2105 52.8136 59.1101 52.8138C60.0108 52.8041 60.872 52.4716 61.6938 51.8162Z" fill="black"/>
<path d="M71.2344 47.0178L62.5284 33.1623L64.6572 31.8246L73.3632 45.6801L71.2344 47.0178ZM62.1598 30.1729C61.7449 30.4336 61.2983 30.5171 60.82 30.4234C60.3477 30.3259 59.9869 30.0787 59.7375 29.6818C59.4881 29.2849 59.422 28.8526 59.539 28.3848C59.6621 27.9132 59.9311 27.547 60.3461 27.2863C60.761 27.0256 61.2046 26.944 61.6769 27.0415C62.1552 27.1352 62.519 27.3805 62.7684 27.7774C63.0178 28.1743 63.0809 28.6085 62.9579 29.0801C62.8408 29.5479 62.5748 29.9121 62.1598 30.1729Z" fill="black"/>
<path d="M79.2752 28.2892L77.5177 29.845C77.2264 29.5675 76.8789 29.3289 76.4753 29.1291C76.075 28.9199 75.6128 28.8114 75.0888 28.8036C74.5648 28.7958 73.9732 28.9506 73.3141 29.268C72.4119 29.7025 71.7601 30.2726 71.359 30.9782C70.9611 31.6743 70.9147 32.3391 71.2197 32.9726C71.4909 33.5357 71.9099 33.8818 72.4765 34.0109C73.0432 34.1401 73.8141 34.1038 74.7891 33.9023L77.2364 33.3859C78.7087 33.0711 79.9266 33.0876 80.8903 33.4354C81.8509 33.7769 82.5793 34.4627 83.0754 35.493C83.4822 36.3376 83.6027 37.2098 83.4368 38.1095C83.2774 39.0061 82.8582 39.8544 82.1792 40.6543C81.5003 41.4542 80.5881 42.13 79.4427 42.6816C77.9389 43.4058 76.5372 43.6788 75.2374 43.5007C73.9377 43.3225 72.8546 42.6696 71.9883 41.5417L73.8795 39.9688C74.4664 40.6637 75.1401 41.0723 75.9006 41.1948C76.6676 41.3142 77.515 41.1505 78.4428 40.7036C79.4987 40.1952 80.2291 39.5675 80.6341 38.8207C81.0424 38.0644 81.094 37.3695 80.7889 36.736C80.5424 36.2241 80.1567 35.8816 79.632 35.7087C79.1042 35.5293 78.4275 35.5319 77.602 35.7166L74.8675 36.324C73.3633 36.6543 72.1326 36.636 71.1756 36.2692C70.2218 35.8929 69.5 35.1961 69.01 34.1786C68.6094 33.3468 68.4886 32.4984 68.6475 31.6336C68.8129 30.7656 69.2141 29.9536 69.8511 29.1975C70.4945 28.4384 71.3345 27.8092 72.3712 27.3099C73.8301 26.6074 75.1296 26.3757 76.2696 26.615C77.416 26.8512 78.4179 27.4093 79.2752 28.2892Z" fill="black"/>
<path d="M88.8367 45.2775L79.2247 24.934L81.4209 23.8963L82.5314 26.2466L82.8011 26.1192C82.8467 25.7834 82.9231 25.3467 83.0304 24.809C83.1411 24.2618 83.4014 23.699 83.8114 23.1203C84.2248 22.5322 84.9131 22.0107 85.8764 21.5555C87.1221 20.9669 88.3674 20.7595 89.6121 20.9334C90.8568 21.1072 92.0157 21.6398 93.0887 22.531C94.1618 23.4222 95.0654 24.6448 95.7997 26.1988C96.54 27.7657 96.9152 29.2498 96.9253 30.651C96.9324 32.0459 96.6126 33.281 95.966 34.3563C95.3163 35.4252 94.375 36.251 93.1421 36.8335C92.1917 37.2826 91.3564 37.4848 90.6362 37.4401C89.913 37.3891 89.3017 37.2341 88.8023 36.9752C88.2999 36.7099 87.9015 36.4818 87.6071 36.291L87.4145 36.382L91.11 44.2035L88.8367 45.2775ZM84.9547 31.2758C85.4826 32.3931 86.1121 33.3015 86.8432 34.0008C87.5712 34.6937 88.3636 35.1323 89.2205 35.3166C90.0743 35.4944 90.9572 35.3679 91.869 34.9371C92.8194 34.488 93.4941 33.8629 93.8932 33.0616C94.2957 32.2509 94.4557 31.3427 94.3732 30.3369C94.2942 29.3217 94.0058 28.2875 93.5082 27.2344C93.0167 26.1941 92.4132 25.3324 91.6977 24.6493C90.9856 23.9567 90.1931 23.5181 89.3204 23.3335C88.451 23.1394 87.5347 23.2699 86.5715 23.725C85.6468 24.1619 84.9805 24.7635 84.5727 25.5296C84.1618 26.2893 83.9931 27.1624 84.0664 28.1489C84.1368 29.129 84.4329 30.1713 84.9547 31.2758Z" fill="black"/>
<path d="M96.3914 13.1119L102.719 33.9923L100.313 34.7215L93.9852 13.8411L96.3914 13.1119Z" fill="black"/>
<path d="M110.159 33.3C109.128 33.4161 108.171 33.3274 107.288 33.0339C106.403 32.7333 105.672 32.2403 105.095 31.5549C104.516 30.8625 104.168 29.9869 104.048 28.9283C103.943 27.9967 104.042 27.2208 104.344 26.6007C104.645 25.9736 105.083 25.4596 105.66 25.0587C106.237 24.6578 106.886 24.3345 107.609 24.0886C108.338 23.835 109.075 23.6162 109.819 23.4323C110.792 23.1939 111.583 23.0084 112.19 22.8757C112.803 22.7351 113.241 22.5678 113.505 22.3737C113.776 22.1787 113.889 21.8801 113.844 21.4778L113.834 21.3931C113.717 20.3486 113.339 19.5692 112.703 19.0549C112.073 18.5398 111.183 18.347 110.032 18.4767C108.84 18.611 107.934 18.9775 107.315 19.5761C106.696 20.1747 106.283 20.786 106.074 21.4098L103.608 20.8301C103.92 19.7943 104.398 18.9614 105.041 18.3314C105.691 17.6935 106.424 17.2179 107.239 16.9045C108.061 16.5832 108.881 16.3765 109.699 16.2842C110.222 16.2254 110.829 16.2213 111.521 16.272C112.219 16.3148 112.907 16.491 113.585 16.8006C114.27 17.1093 114.868 17.6245 115.378 18.3461C115.888 19.0676 116.216 20.0742 116.361 21.3657L117.569 32.0792L115.07 32.3607L114.822 30.1587L114.695 30.173C114.565 30.545 114.326 30.9544 113.976 31.4012C113.626 31.848 113.139 32.2495 112.514 32.6058C111.889 32.9621 111.104 33.1935 110.159 33.3ZM110.287 31.0128C111.275 30.9014 112.086 30.6135 112.72 30.149C113.361 29.6837 113.819 29.1246 114.096 28.4716C114.38 27.8178 114.483 27.1522 114.407 26.4746L114.149 24.188C114.058 24.3269 113.838 24.4696 113.49 24.616C113.148 24.7546 112.749 24.889 112.292 25.0191C111.841 25.1413 111.4 25.2553 110.969 25.3611C110.544 25.459 110.199 25.5407 109.935 25.6062C109.295 25.7641 108.704 25.9701 108.161 26.2243C107.624 26.4706 107.204 26.8003 106.9 27.2133C106.602 27.6184 106.489 28.1386 106.561 28.7738C106.659 29.6419 107.054 30.2621 107.746 30.6343C108.445 30.9987 109.292 31.1249 110.287 31.0128Z" fill="black"/>
<path d="M118.721 36.2182C118.295 36.2033 117.916 36.1546 117.585 36.072C117.254 35.9964 117.025 35.9245 116.9 35.8561L117.616 33.6639C118.221 33.8414 118.758 33.917 119.228 33.8908C119.698 33.8645 120.121 33.6696 120.496 33.3061C120.878 32.9499 121.236 32.3619 121.57 31.5421L122.083 30.2808L116.61 13.6308L119.336 13.726L123.395 26.9154L123.565 26.9214L128.534 14.0472L131.26 14.1424L123.664 32.6385C123.322 33.4723 122.911 34.1579 122.43 34.6955C121.949 35.2401 121.399 35.6366 120.779 35.885C120.166 36.1337 119.48 36.2447 118.721 36.2182Z" fill="black"/>
<path d="M132.912 29.3121L132.935 29.1863C133.195 27.8548 133.53 26.8188 133.94 26.0784C134.351 25.3379 134.846 24.7682 135.425 24.3693C136.004 23.9703 136.674 23.6278 137.434 23.3417C137.892 23.1661 138.317 22.9374 138.708 22.6556C139.101 22.3668 139.433 22.0127 139.706 21.5934C139.985 21.1754 140.175 20.6905 140.277 20.1387C140.403 19.4541 140.351 18.8308 140.123 18.2688C139.894 17.7067 139.536 17.24 139.048 16.8686C138.56 16.4972 137.988 16.251 137.332 16.1302C136.759 16.0247 136.185 16.0419 135.611 16.1817C135.036 16.3214 134.524 16.6135 134.074 17.0578C133.623 17.5021 133.295 18.1313 133.087 18.9452L130.447 18.4592C130.721 17.282 131.216 16.3223 131.93 15.58C132.651 14.839 133.514 14.3298 134.518 14.0525C135.53 13.7764 136.601 13.7426 137.733 13.9509C138.962 14.1772 139.986 14.6183 140.804 15.2744C141.629 15.9318 142.211 16.7322 142.55 17.6757C142.896 18.6204 142.969 19.6376 142.768 20.7273C142.627 21.4956 142.38 22.1687 142.028 22.7467C141.683 23.3259 141.246 23.8195 140.716 24.2274C140.193 24.6367 139.589 24.9733 138.905 25.2373C138.219 25.5084 137.652 25.8228 137.204 26.1808C136.756 26.5317 136.396 26.9816 136.121 27.5305C135.847 28.0794 135.623 28.7856 135.45 29.6492L135.426 29.7749L132.912 29.3121ZM133.111 35.7615C132.594 35.6664 132.185 35.3996 131.883 34.9613C131.581 34.523 131.477 34.0453 131.572 33.5285C131.668 33.0116 131.934 32.6021 132.373 32.3C132.811 31.998 133.289 31.8945 133.806 31.9897C134.322 32.0848 134.732 32.3516 135.034 32.7899C135.336 33.2283 135.439 33.7059 135.344 34.2228C135.281 34.565 135.136 34.8633 134.909 35.1175C134.688 35.373 134.419 35.5618 134.101 35.6837C133.79 35.7999 133.46 35.8258 133.111 35.7615Z" fill="black"/>
<path d="M152.457 21.5109L151.753 23.522L143.427 20.6086L144.131 18.5975L152.457 21.5109ZM141.22 34.9154L147.371 17.3383C147.68 16.4534 148.146 15.7887 148.768 15.3442C149.39 14.8997 150.085 14.6461 150.852 14.5834C151.619 14.5206 152.371 14.6183 153.108 14.8763C153.691 15.0804 154.151 15.2939 154.487 15.5167C154.823 15.7396 155.067 15.9229 155.22 16.0667L153.818 17.8788C153.712 17.7963 153.562 17.6874 153.368 17.552C153.182 17.419 152.917 17.2926 152.575 17.173C151.791 16.8985 151.155 16.8981 150.668 17.1716C150.188 17.4475 149.814 17.9676 149.547 18.7318L143.593 35.7458L141.22 34.9154Z" fill="black"/>
<path d="M153.015 39.6643C151.684 39.0233 150.669 38.1442 149.969 37.0269C149.276 35.9127 148.922 34.6505 148.908 33.2403C148.899 31.8332 149.262 30.3682 149.995 28.8452C150.735 27.3095 151.659 26.103 152.767 25.2256C153.882 24.3514 155.091 23.8379 156.394 23.6851C157.704 23.5355 159.024 23.7811 160.355 24.4221C161.686 25.063 162.698 25.9406 163.392 27.0548C164.091 28.1721 164.443 29.4375 164.449 30.851C164.46 32.2676 164.096 33.7438 163.356 35.2795C162.623 36.8025 161.7 37.9979 160.589 38.8657C159.484 39.7366 158.276 40.2469 156.966 40.3966C155.663 40.5494 154.346 40.3053 153.015 39.6643ZM153.995 37.6294C155.006 38.1163 155.963 38.2578 156.865 38.0538C157.767 37.8498 158.579 37.401 159.299 36.7073C160.019 36.0136 160.617 35.1741 161.091 34.1887C161.566 33.2032 161.851 32.2095 161.947 31.2074C162.044 30.2054 161.892 29.2848 161.492 28.4458C161.092 27.6068 160.386 26.9438 159.375 26.4569C158.364 25.97 157.406 25.8318 156.501 26.0422C155.595 26.2526 154.781 26.7078 154.058 27.4079C153.334 28.1079 152.735 28.9507 152.261 29.9361C151.786 30.9215 151.502 31.9121 151.409 32.9077C151.316 33.9034 151.471 34.8175 151.874 35.6502C152.277 36.4828 152.984 37.1426 153.995 37.6294Z" fill="black"/>
<path d="M175.865 25.5424L164.257 44.0163L162.128 42.6787L173.736 24.2047L175.865 25.5424Z" fill="black"/>
<path d="M181.639 28.5226L169.259 46.4885L167.189 45.0619L179.568 27.0961L181.639 28.5226Z" fill="black"/>
<path d="M176.059 51.4331C175.014 50.3886 174.346 49.2234 174.055 47.9378C173.769 46.6572 173.851 45.3489 174.303 44.013C174.76 42.6822 175.587 41.4191 176.782 40.2239C177.987 39.0186 179.258 38.1849 180.594 37.7229C181.934 37.2659 183.245 37.1805 184.526 37.4668C185.812 37.7581 186.977 38.426 188.021 39.4706C189.066 40.5152 189.731 41.6778 190.018 42.9584C190.309 44.2441 190.223 45.5548 189.761 46.8907C189.304 48.2316 188.473 49.5047 187.268 50.71C186.073 51.9052 184.807 52.7288 183.471 53.1808C182.14 53.6378 180.832 53.7207 179.546 53.4294C178.266 53.1432 177.103 52.4777 176.059 51.4331ZM177.656 49.8361C178.449 50.6296 179.305 51.0791 180.224 51.1846C181.144 51.29 182.058 51.1343 182.967 50.7175C183.876 50.3007 184.717 49.7056 185.49 48.9322C186.264 48.1588 186.861 47.3151 187.283 46.401C187.705 45.487 187.866 44.568 187.765 43.6439C187.665 42.7199 187.218 41.8611 186.424 41.0676C185.631 40.2741 184.772 39.8272 183.848 39.7267C182.924 39.6263 182.005 39.787 181.091 40.2088C180.177 40.6307 179.333 41.2283 178.56 42.0017C177.786 42.7751 177.191 43.6163 176.774 44.5253C176.357 45.4343 176.202 46.3483 176.307 47.2673C176.413 48.1864 176.862 49.0426 177.656 49.8361Z" fill="black"/>
<path d="M185.635 58.4458L195.32 44.3452L196.967 46.4108L189.377 56.9874L189.483 57.1207L201.457 52.0413L203.131 54.1403L195.521 64.6237L195.628 64.757L207.595 59.7375L209.242 61.8031L193.34 68.1076L191.799 66.1753L199.395 55.5388L199.236 55.3389L187.176 60.3782L185.635 58.4458Z" fill="black"/>
<path d="M198.695 72.1073L213.438 65.0073L214.492 67.1958L212.188 68.3051L212.281 68.4971C213.216 68.4252 214.066 68.6269 214.83 69.102C215.602 69.5741 216.218 70.29 216.681 71.2498C217.149 72.2225 217.318 73.1383 217.188 73.9972C217.067 74.8594 216.701 75.6624 216.089 76.4062L216.163 76.5598C217.107 76.5706 217.984 76.8457 218.796 77.3851C219.614 77.9213 220.277 78.7174 220.785 79.7732C221.42 81.0914 221.527 82.3684 221.105 83.6041C220.689 84.8368 219.615 85.8708 217.881 86.7059L208.013 91.4576L206.923 89.1924L216.79 84.4406C217.878 83.9168 218.512 83.2448 218.692 82.4248C218.873 81.6047 218.769 80.7915 218.381 79.9853C217.881 78.9486 217.181 78.2966 216.28 78.0291C215.385 77.7585 214.461 77.8528 213.507 78.3119L203.909 82.9342L202.799 80.6306L212.897 75.7679C213.735 75.3642 214.279 74.7672 214.529 73.9768C214.786 73.1832 214.707 72.3578 214.294 71.5003C214.011 70.9116 213.589 70.4368 213.029 70.0759C212.472 69.7213 211.84 69.5214 211.132 69.4759C210.434 69.4338 209.723 69.5868 209 69.935L199.786 74.3725L198.695 72.1073Z" fill="black"/>
<path d="M208.905 100.381C208.384 98.8928 208.263 97.4941 208.543 96.1849C208.831 94.8801 209.466 93.7285 210.449 92.7301C211.44 91.736 212.727 90.9622 214.309 90.4086C215.891 89.855 217.387 89.6553 218.795 89.8096C220.213 89.9683 221.442 90.4487 222.482 91.2508C223.532 92.0574 224.301 93.1578 224.789 94.5522C225.07 95.3566 225.214 96.1979 225.22 97.0761C225.227 97.9542 225.041 98.8207 224.663 99.6753C224.291 100.528 223.68 101.317 222.828 102.044C221.976 102.771 220.83 103.387 219.388 103.891L218.383 104.243L214.217 92.3372L216.268 91.6194L219.59 101.112C220.461 100.807 221.178 100.361 221.74 99.7727C222.304 99.1915 222.672 98.5133 222.845 97.738C223.02 96.9695 222.957 96.1562 222.657 95.2981C222.326 94.3529 221.805 93.6171 221.094 93.0909C220.393 92.5689 219.605 92.2538 218.732 92.1455C217.859 92.0371 216.997 92.1319 216.145 92.4298L214.778 92.9084C213.611 93.3165 212.693 93.8636 212.022 94.5497C211.361 95.2401 210.946 96.0212 210.777 96.893C210.615 97.7624 210.701 98.6765 211.037 99.6351C211.255 100.259 211.539 100.791 211.889 101.233C212.248 101.679 212.67 102.024 213.155 102.269C213.646 102.511 214.194 102.639 214.801 102.652L214.96 105.17C214.098 105.201 213.272 105.034 212.483 104.671C211.7 104.305 210.998 103.761 210.376 103.038C209.761 102.312 209.271 101.427 208.905 100.381Z" fill="black"/>
<path d="M213.194 112.159C213.078 111.128 213.166 110.171 213.46 109.288C213.76 108.403 214.253 107.672 214.939 107.095C215.631 106.516 216.507 106.168 217.565 106.048C218.497 105.943 219.273 106.042 219.893 106.344C220.52 106.645 221.034 107.083 221.435 107.66C221.836 108.237 222.159 108.886 222.405 109.609C222.659 110.338 222.878 111.075 223.061 111.819C223.3 112.792 223.485 113.583 223.618 114.19C223.759 114.803 223.926 115.241 224.12 115.505C224.315 115.776 224.614 115.889 225.016 115.844L225.101 115.834C226.145 115.717 226.925 115.339 227.439 114.703C227.954 114.073 228.147 113.183 228.017 112.032C227.883 110.84 227.516 109.934 226.918 109.315C226.319 108.696 225.708 108.283 225.084 108.074L225.664 105.608C226.699 105.92 227.532 106.398 228.162 107.041C228.8 107.691 229.276 108.424 229.589 109.239C229.911 110.061 230.117 110.881 230.21 111.699C230.268 112.222 230.272 112.829 230.222 113.521C230.179 114.219 230.003 114.907 229.693 115.585C229.384 116.27 228.869 116.868 228.148 117.378C227.426 117.888 226.42 118.216 225.128 118.361L214.415 119.569L214.133 117.07L216.335 116.822L216.321 116.695C215.949 116.565 215.539 116.326 215.093 115.976C214.646 115.626 214.244 115.139 213.888 114.514C213.532 113.89 213.3 113.104 213.194 112.159ZM215.481 112.287C215.592 113.275 215.88 114.086 216.345 114.72C216.81 115.361 217.369 115.819 218.022 116.096C218.676 116.38 219.342 116.483 220.019 116.407L222.306 116.149C222.167 116.058 222.024 115.838 221.878 115.49C221.739 115.148 221.605 114.749 221.475 114.292C221.352 113.841 221.238 113.4 221.133 112.969C221.035 112.544 220.953 112.199 220.888 111.935C220.73 111.295 220.524 110.704 220.269 110.161C220.023 109.624 219.693 109.204 219.28 108.9C218.875 108.602 218.355 108.49 217.72 108.561C216.852 108.659 216.232 109.054 215.859 109.746C215.495 110.445 215.369 111.292 215.481 112.287Z" fill="black"/>
<path d="M223.885 122.354L214.055 122.869L213.923 120.358L230.264 119.502L230.391 121.927L227.838 122.061L227.849 122.274C228.699 122.613 229.396 123.16 229.941 123.914C230.492 124.667 230.8 125.661 230.865 126.895C230.923 128.002 230.747 128.982 230.337 129.835C229.933 130.689 229.286 131.37 228.395 131.879C227.512 132.387 226.375 132.678 224.985 132.751L214.601 133.295L214.47 130.784L224.683 130.249C225.967 130.182 226.949 129.796 227.631 129.092C228.319 128.387 228.633 127.453 228.572 126.29C228.53 125.489 228.319 124.781 227.938 124.168C227.558 123.562 227.025 123.096 226.339 122.769C225.653 122.442 224.835 122.304 223.885 122.354Z" fill="black"/>
<path d="M212.367 139.175C212.52 137.82 212.997 136.663 213.799 135.702C214.607 134.743 215.672 134.041 216.995 133.597C218.324 133.153 219.85 133.028 221.572 133.222C223.28 133.415 224.729 133.875 225.919 134.602C227.109 135.329 227.988 136.254 228.555 137.376C229.122 138.497 229.328 139.743 229.174 141.112C229.054 142.17 228.784 142.987 228.362 143.561C227.946 144.143 227.497 144.572 227.016 144.846C226.541 145.129 226.152 145.346 225.849 145.497L225.825 145.709L233.829 146.611L233.547 149.109L211.866 146.666L212.138 144.253L214.637 144.534L214.67 144.238C214.394 144.021 214.05 143.717 213.636 143.328C213.23 142.939 212.885 142.411 212.603 141.743C212.328 141.076 212.25 140.22 212.367 139.175ZM214.573 139.767C214.461 140.769 214.626 141.645 215.071 142.396C215.522 143.147 216.193 143.755 217.084 144.22C217.982 144.686 219.045 144.988 220.273 145.126C221.487 145.263 222.569 145.206 223.52 144.956C224.477 144.707 225.248 144.265 225.835 143.63C226.428 142.997 226.782 142.172 226.896 141.155C227.015 140.097 226.843 139.184 226.379 138.417C225.921 137.658 225.25 137.05 224.365 136.593C223.487 136.143 222.476 135.854 221.333 135.726C220.175 135.595 219.104 135.653 218.118 135.899C217.139 136.154 216.331 136.599 215.695 137.235C215.065 137.878 214.691 138.722 214.573 139.767Z" fill="black"/>
<path d="M209.123 149.805L229.717 157.011L228.887 159.384L221.285 156.724L221.214 156.925C221.422 157.193 221.679 157.554 221.987 158.008C222.299 158.471 222.517 159.051 222.641 159.749C222.77 160.457 222.659 161.313 222.307 162.319C221.852 163.619 221.126 164.652 220.128 165.416C219.131 166.181 217.938 166.633 216.55 166.771C215.162 166.91 213.657 166.696 212.035 166.128C210.399 165.556 209.078 164.782 208.073 163.805C207.075 162.831 206.419 161.737 206.107 160.521C205.802 159.308 205.874 158.058 206.325 156.771C206.672 155.779 207.114 155.042 207.651 154.56C208.195 154.081 208.735 153.754 209.269 153.58C209.811 153.409 210.253 153.285 210.596 153.209L210.694 152.928L208.321 152.097L209.123 149.805ZM216.03 154.84C214.863 154.432 213.774 154.243 212.763 154.272C211.759 154.305 210.89 154.561 210.157 155.042C209.432 155.526 208.902 156.243 208.569 157.195C208.222 158.188 208.193 159.107 208.484 159.954C208.779 160.809 209.314 161.561 210.088 162.208C210.867 162.864 211.806 163.384 212.905 163.769C213.991 164.149 215.029 164.324 216.017 164.294C217.011 164.273 217.879 164.016 218.623 163.524C219.372 163.041 219.922 162.297 220.274 161.291C220.611 160.326 220.651 159.429 220.391 158.601C220.138 157.775 219.635 157.042 218.881 156.402C218.133 155.764 217.183 155.243 216.03 154.84Z" fill="black"/>
<path d="M199.642 171.405C200.326 169.984 201.229 168.91 202.353 168.182C203.479 167.463 204.743 167.098 206.144 167.087C207.548 167.085 209.005 167.448 210.515 168.175C212.025 168.902 213.223 169.818 214.11 170.923C215 172.038 215.53 173.247 215.698 174.55C215.87 175.862 215.636 177.184 214.995 178.515C214.625 179.283 214.132 179.979 213.515 180.605C212.899 181.23 212.155 181.711 211.283 182.048C210.418 182.388 209.427 182.514 208.311 182.426C207.194 182.338 205.948 181.962 204.573 181.3L203.613 180.838L209.086 169.473L211.044 170.416L206.68 179.477C207.512 179.878 208.334 180.069 209.147 180.05C209.957 180.038 210.697 179.819 211.368 179.393C212.035 178.973 212.566 178.354 212.96 177.535C213.394 176.633 213.546 175.744 213.416 174.869C213.289 174.004 212.955 173.224 212.414 172.53C211.873 171.836 211.196 171.294 210.384 170.902L209.078 170.274C207.965 169.738 206.929 169.475 205.969 169.486C205.014 169.507 204.168 169.765 203.432 170.262C202.702 170.762 202.117 171.47 201.677 172.385C201.39 172.98 201.214 173.558 201.15 174.118C201.088 174.687 201.142 175.23 201.312 175.745C201.488 176.263 201.786 176.742 202.205 177.18L200.537 179.073C199.906 178.485 199.439 177.783 199.138 176.968C198.843 176.156 198.732 175.275 198.803 174.324C198.882 173.376 199.161 172.403 199.642 171.405Z" fill="black"/>
<path d="M192.96 182.624L205.754 192.827L204.186 194.792L191.392 184.59L192.96 182.624ZM207.089 195.527C207.394 195.143 207.788 194.917 208.271 194.848C208.749 194.784 209.171 194.898 209.537 195.19C209.904 195.482 210.109 195.868 210.153 196.349C210.193 196.834 210.06 197.269 209.754 197.652C209.449 198.035 209.057 198.259 208.579 198.323C208.096 198.392 207.672 198.281 207.306 197.989C206.939 197.696 206.736 197.307 206.696 196.822C206.652 196.341 206.783 195.91 207.089 195.527Z" fill="black"/>
<path d="M195.061 196.462L188.1 189.501L189.878 187.723L201.449 199.294L199.731 201.012L197.923 199.204L197.773 199.354C198.089 200.213 198.149 201.097 197.953 202.006C197.763 202.92 197.23 203.814 196.356 204.688C195.573 205.471 194.727 205.996 193.818 206.262C192.914 206.534 191.975 206.508 191 206.187C190.031 205.871 189.054 205.22 188.07 204.236L180.718 196.884L182.496 195.106L189.727 202.338C190.636 203.247 191.58 203.719 192.56 203.754C193.544 203.794 194.448 203.402 195.272 202.579C195.839 202.011 196.223 201.381 196.424 200.688C196.62 200 196.61 199.292 196.394 198.564C196.178 197.835 195.734 197.135 195.061 196.462Z" fill="black"/>
<path d="M179.116 216.378L177.983 214.574L185.163 210.063L186.297 211.867L179.116 216.378ZM186.29 216.501L184.161 217.839L175.863 204.633C175.485 204.031 175.114 203.635 174.751 203.444C174.386 203.263 174.032 203.208 173.692 203.279C173.348 203.361 173.021 203.5 172.708 203.696C172.473 203.844 172.288 203.977 172.153 204.095C172.022 204.22 171.917 204.319 171.838 204.394L170.203 202.754C170.313 202.609 170.481 202.428 170.705 202.212C170.926 201.989 171.235 201.753 171.632 201.504C172.233 201.126 172.904 200.885 173.644 200.781C174.378 200.68 175.1 200.776 175.811 201.067C176.517 201.362 177.123 201.912 177.629 202.718L186.29 216.501Z" fill="black"/>
<path d="M165.017 204.828C166.348 204.187 167.669 203.942 168.978 204.091C170.282 204.244 171.489 204.754 172.601 205.622C173.706 206.493 174.625 207.69 175.359 209.213C176.098 210.749 176.466 212.223 176.461 213.637C176.449 215.054 176.097 216.319 175.404 217.433C174.704 218.55 173.689 219.43 172.358 220.071C171.027 220.711 169.71 220.956 168.406 220.803C167.097 220.653 165.888 220.14 164.779 219.262C163.665 218.388 162.737 217.183 161.998 215.647C161.264 214.124 160.905 212.658 160.92 211.248C160.928 209.841 161.282 208.578 161.981 207.461C162.674 206.347 163.686 205.469 165.017 204.828ZM165.997 206.863C164.986 207.35 164.279 208.01 163.876 208.842C163.473 209.675 163.318 210.589 163.411 211.585C163.505 212.58 163.789 213.571 164.263 214.556C164.738 215.542 165.337 216.385 166.06 217.085C166.783 217.785 167.598 218.24 168.503 218.45C169.409 218.661 170.367 218.523 171.378 218.036C172.389 217.549 173.094 216.886 173.494 216.047C173.894 215.208 174.046 214.287 173.95 213.285C173.854 212.283 173.568 211.289 173.094 210.304C172.619 209.318 172.022 208.479 171.301 207.785C170.581 207.092 169.77 206.643 168.867 206.439C167.965 206.235 167.008 206.376 165.997 206.863Z" fill="black"/>
<path d="M151.163 218.686L154.358 227.817L151.985 228.647L146.58 213.202L148.953 212.371L149.868 214.986L150.029 214.93C150.117 214.019 150.446 213.155 151.018 212.337C151.593 211.527 152.463 210.918 153.629 210.51C154.595 210.172 155.527 210.083 156.425 210.242C157.326 210.409 158.141 210.846 158.871 211.554C159.602 212.268 160.198 213.283 160.658 214.597L164.092 224.411L161.719 225.241L158.341 215.588C157.947 214.462 157.317 213.674 156.453 213.224C155.581 212.776 154.653 212.725 153.667 213.07C153.077 213.276 152.53 213.637 152.026 214.152C151.515 214.669 151.16 215.313 150.963 216.082C150.759 216.853 150.825 217.721 151.163 218.686Z" fill="black"/>
<path d="M140.6 213.846C142.095 213.505 143.464 213.564 144.705 214.023C145.947 214.483 147 215.266 147.864 216.373C148.729 217.48 149.343 218.829 149.706 220.422C150.076 222.042 150.105 223.54 149.792 224.915C149.474 226.299 148.858 227.463 147.945 228.408C147.026 229.36 145.846 230.001 144.406 230.33C143.284 230.586 142.226 230.609 141.231 230.399C140.236 230.189 139.366 229.776 138.62 229.159C137.875 228.542 137.319 227.751 136.953 226.786L139.404 226.226C139.757 226.911 140.32 227.46 141.092 227.874C141.858 228.296 142.782 228.384 143.862 228.138C144.817 227.919 145.598 227.479 146.205 226.816C146.806 226.162 147.204 225.339 147.4 224.347C147.591 223.363 147.549 222.269 147.274 221.065C146.993 219.832 146.554 218.803 145.957 217.978C145.354 217.154 144.638 216.57 143.81 216.228C142.974 215.887 142.072 215.827 141.102 216.048C140.465 216.193 139.912 216.436 139.444 216.776C138.975 217.116 138.608 217.535 138.343 218.033C138.078 218.53 137.935 219.087 137.916 219.704L135.464 220.263C135.388 219.29 135.537 218.363 135.912 217.484C136.281 216.613 136.862 215.854 137.654 215.207C138.441 214.568 139.423 214.115 140.6 213.846Z" fill="black"/>
<path d="M136.671 224.997L135.569 215.215L138.068 214.934L140.51 236.615L138.012 236.896L137.115 228.935L136.903 228.959C136.617 229.842 136.12 230.573 135.414 231.153C134.701 231.741 133.706 232.107 132.428 232.251C131.32 232.376 130.325 232.263 129.442 231.912C128.56 231.568 127.838 230.967 127.277 230.108C126.709 229.257 126.347 228.133 126.189 226.736L125.025 216.403L127.523 216.122L128.669 226.285C128.814 227.576 129.262 228.537 130.012 229.167C130.756 229.805 131.717 230.058 132.895 229.925C133.714 229.833 134.429 229.577 135.039 229.158C135.642 228.74 136.093 228.178 136.393 227.473C136.685 226.768 136.778 225.943 136.671 224.997Z" fill="black"/>
<line x1="63.9957" y1="121.5" x2="179.996" y2="120.5" stroke="black"/>
<path d="M143.5 148.5C144.817 132.746 154.5 123 179.74 120.775" stroke="black"/>
<path d="M141.5 95.5C145.273 110.515 155.795 119.815 179.995 120.25" stroke="black"/>
</svg>
